<?xml version="1.0" standalone="no"?>
<!DOCTYPE svg PUBLIC "-//W3C//DTD SVG 20010904//EN"
 "http://www.w3.org/TR/2001/REC-SVG-20010904/DTD/svg10.dtd">
<svg version="1.0" xmlns="http://www.w3.org/2000/svg"
 width="320.000000pt" height="320.000000pt" viewBox="0 0 320.000000 320.000000"
 preserveAspectRatio="xMidYMid meet">
<metadata>
Created by potrace 1.16, written by Peter Selinger 2001-2019
</metadata>
<g transform="translate(0.000000,320.000000) scale(0.100000,-0.100000)"
fill="#000000" stroke="none">
<path d="M1433 3083 l-31 -4 -7 -77 c-3 -42 -7 -84 -8 -92 -2 -15 -96 -42
-130 -37 -11 1 -32 28 -54 67 -52 96 -44 93 -126 63 -40 -14 -93 -36 -120 -49
-52 -27 -51 -15 -21 -135 8 -31 14 -61 14 -66 0 -10 -95 -73 -110 -73 -5 0
-36 25 -68 55 -33 30 -66 55 -74 55 -14 0 -148 -109 -177 -143 -11 -15 -7 -26
31 -89 25 -40 48 -78 51 -84 3 -5 -23 -50 -58 -100 -162 -225 -235 -451 -235
-725 0 -221 47 -418 146 -609 195 -375 540 -630 973 -716 115 -23 407 -15 531
14 174 41 340 111 463 196 l68 47 61 -56 c34 -30 67 -55 73 -55 15 0 185 168
185 183 0 6 -24 42 -54 82 l-54 71 30 45 c17 24 32 46 34 47 1 2 40 -10 85
-28 45 -17 87 -29 94 -26 14 5 115 199 115 221 0 7 -35 38 -79 68 l-78 56 19
58 c11 32 22 60 24 62 2 3 45 7 94 11 49 4 92 9 95 11 2 3 8 58 12 123 10 136
17 124 -98 151 l-77 17 -6 46 c-15 107 -15 105 75 137 44 15 83 33 85 39 2 6
-8 52 -22 101 -14 50 -28 100 -31 113 -3 12 -10 22 -17 23 -33 2 -144 -3 -163
-8 -19 -4 -27 4 -55 62 l-33 67 69 63 c64 58 67 64 56 85 -23 43 -131 190
-139 190 -5 0 -43 -16 -85 -36 -41 -20 -79 -34 -84 -32 -5 1 -34 25 -65 53
l-55 50 44 81 44 82 -40 35 c-40 34 -145 102 -167 109 -6 2 -41 -26 -77 -61
l-66 -64 -42 19 c-61 28 -66 35 -57 91 4 26 8 65 8 86 1 32 -3 39 -26 49 -42
17 -205 58 -213 53 -3 -2 -24 -40 -45 -85 -36 -73 -42 -80 -65 -76 -14 3 -44
8 -67 11 -45 7 -44 5 -59 128 l-6 57 -102 -2 c-55 0 -115 -3 -133 -5z m191
-95 c3 -24 8 -67 12 -95 4 -29 7 -53 8 -54 0 0 21 -2 46 -5 25 -3 69 -9 99
-15 30 -5 58 -9 62 -9 3 0 23 38 44 85 43 95 45 96 131 70 79 -24 77 -20 60
-116 -11 -64 -12 -86 -3 -94 7 -6 45 -26 85 -45 l72 -34 70 69 69 69 35 -19
c19 -10 50 -33 70 -49 l35 -31 -45 -79 c-24 -44 -43 -82 -42 -86 2 -3 40 -41
85 -83 l81 -78 82 41 82 41 25 -23 c13 -12 37 -44 53 -70 l29 -47 -32 -27
c-18 -14 -50 -43 -73 -64 l-41 -38 46 -96 46 -96 75 7 c128 12 123 13 138 -32
7 -21 17 -56 21 -76 l8 -37 -86 -33 c-47 -17 -87 -33 -89 -34 -2 -1 2 -52 9
-113 l12 -109 56 -13 c131 -28 131 -28 131 -64 0 -18 -3 -54 -6 -80 l-7 -46
-51 -1 c-28 0 -73 -4 -100 -7 l-50 -7 -27 -95 c-16 -52 -28 -96 -29 -96 0 -1
36 -25 80 -54 44 -29 80 -56 80 -61 0 -20 -65 -149 -75 -149 -6 0 -45 11 -85
25 -40 14 -81 25 -90 25 -10 0 -37 -30 -64 -70 l-48 -71 61 -81 61 -82 -59
-60 -60 -60 -56 50 c-98 85 -84 83 -174 20 -146 -103 -320 -176 -491 -207
-112 -20 -364 -17 -475 5 -526 108 -921 495 -1022 1001 -36 185 -19 442 41
615 51 146 154 327 221 390 14 13 25 27 25 32 0 5 -23 45 -50 89 -30 49 -47
86 -43 93 5 8 30 32 57 55 l49 42 31 -28 c17 -15 50 -45 73 -67 l41 -39 90 57
90 57 -19 67 c-37 127 -39 119 24 147 105 46 100 48 149 -47 27 -52 49 -82 58
-81 8 1 56 10 105 21 73 15 90 22 92 38 1 10 5 54 8 96 7 87 3 83 116 87 l57
1 6 -42z"/>
<path d="M1529 2530 l-126 -120 -308 -7 -309 -6 198 -194 c110 -107 204 -193
211 -191 20 5 629 607 622 615 -4 3 -28 10 -54 14 -101 16 -98 18 -234 -111z"/>
<path d="M1446 2204 l-429 -426 94 -94 c52 -51 97 -94 102 -94 4 0 7 84 7 186
0 106 4 184 9 182 5 -1 91 -82 191 -178 192 -184 216 -205 222 -193 2 5 5 96
6 203 1 107 5 242 8 299 l7 104 164 171 c91 94 178 183 194 198 16 15 29 32
29 36 0 5 -30 12 -67 16 -38 4 -77 9 -88 11 -16 4 -116 -90 -449 -421z"/>
<path d="M784 2009 c-3 -6 59 -68 159 -159 l48 -44 94 94 c52 52 92 96 90 99
-8 7 -386 17 -391 10z"/>
<path d="M882 1753 c-156 -167 -241 -342 -242 -500 -1 -131 57 -301 137 -401
50 -63 150 -150 207 -179 159 -81 344 -72 484 24 80 54 95 80 219 368 36 83
69 154 74 159 5 6 26 -27 50 -80 134 -290 145 -310 182 -327 69 -33 147 -13
182 46 14 24 20 57 23 130 3 53 8 97 13 97 4 0 83 -59 176 -131 l168 -131 23
29 c12 15 31 42 42 60 l19 32 -136 103 c-75 57 -138 108 -140 113 -2 6 44 52
102 103 62 55 107 103 111 118 9 36 -24 78 -63 82 -32 3 -51 -10 -223 -162
-41 -36 -78 -66 -82 -66 -5 0 -8 42 -8 94 0 104 -11 130 -62 142 -22 5 -33 0
-58 -24 l-30 -30 0 -216 c0 -119 -4 -216 -9 -216 -8 0 -37 64 -157 342 -50
117 -63 139 -88 150 -51 21 -73 -2 -137 -142 -32 -69 -85 -181 -118 -250 -32
-69 -69 -147 -82 -174 -32 -69 -90 -122 -152 -137 -71 -17 -191 -6 -260 25
-119 52 -231 204 -258 351 -33 177 44 404 189 557 l36 38 -29 30 c-16 16 -33
30 -39 30 -5 0 -34 -26 -64 -57z"/>
<path d="M996 1507 c-31 -10 -50 -55 -37 -88 17 -47 43 -57 166 -60 133 -4
165 -16 165 -66 0 -33 -29 -43 -123 -43 -100 0 -120 -14 -115 -76 4 -53 35
-72 133 -80 104 -9 135 -33 101 -79 -12 -17 -26 -18 -153 -16 -140 2 -141 2
-161 -23 -29 -37 -17 -86 26 -108 37 -18 276 -35 332 -23 18 4 49 23 71 42 50
45 73 107 67 175 -5 46 -11 57 -46 89 l-41 36 25 24 c61 57 81 146 45 205 -34
56 -79 75 -199 85 -168 13 -230 15 -256 6z"/>
<path d="M1713 1045 c-28 -20 -46 -75 -34 -106 24 -64 106 -86 155 -40 44 41
42 96 -5 140 -27 25 -85 28 -116 6z"/>
</g>
</svg>
