<svg id="Capa_1" enable-background="new 0 0 512 512" height="512" viewBox="0 0 512 512" width="512" xmlns="http://www.w3.org/2000/svg"><g><path d="m76 211h30v61.362h-30z" fill="#0b799d"/><path d="m136 181h30v53.188h-30z" fill="#0b799d"/><path d="m406 211h30v61.362h-30z" fill="#07485e"/><path d="m346 181h30v53.188h-30z" fill="#07485e"/><path d="m481 367.416v-74.648l-165-105v-88.686c0-49.321-18.56-99.082-60-99.082s-60 49.761-60 99.082v88.686l-165 105v74.648l165-60v97.284l-45 30v77.3l105-52.5 105 52.5v-77.3l-45-30v-97.284z" fill="#7ed8f6"/><path d="m361 434.7-45-30v-97.284l165 60v-74.648l-165-105v-88.686c0-49.321-18.56-99.082-60-99.082v459.5l105 52.5z" fill="#6aa9ff"/></g></svg>