<?xml version="1.0" encoding="iso-8859-1"?>
<!-- Generator: Adobe Illustrator 19.0.0, SVG Export Plug-In . SVG Version: 6.00 Build 0)  -->
<svg version="1.1" id="Capa_1" xmlns="http://www.w3.org/2000/svg" xmlns:xlink="http://www.w3.org/1999/xlink" x="0px" y="0px"
	 viewBox="0 0 512 512" style="enable-background:new 0 0 512 512;" xml:space="preserve">
<polygon style="fill:#FFF6E1;" points="71.607,53.805 71.607,502 330,502 440.393,391.607 440.393,53.805 "/>
<polygon style="fill:#4B7C91;" points="330,502 440.392,391.607 330,391.607 "/>
<path d="M379.08,319.63c-2.641,0-5.21-1.07-7.07-2.93c-0.46-0.46-0.88-0.971-1.25-1.521c-0.36-0.54-0.67-1.12-0.92-1.72
	c-0.25-0.61-0.44-1.24-0.57-1.87c-0.13-0.65-0.189-1.31-0.189-1.96s0.06-1.311,0.189-1.95s0.32-1.27,0.57-1.87
	c0.25-0.609,0.56-1.189,0.92-1.729c0.37-0.55,0.78-1.061,1.25-1.521c2.32-2.319,5.771-3.39,9.021-2.729
	c0.64,0.13,1.27,0.319,1.869,0.569c0.601,0.25,1.19,0.561,1.73,0.92c0.55,0.36,1.06,0.78,1.52,1.24s0.881,0.971,1.24,1.521
	c0.36,0.54,0.67,1.12,0.92,1.729c0.25,0.601,0.44,1.23,0.57,1.87s0.2,1.3,0.2,1.95s-0.07,1.31-0.2,1.96
	c-0.13,0.63-0.32,1.26-0.57,1.87c-0.25,0.6-0.56,1.18-0.92,1.72c-0.359,0.55-0.78,1.061-1.24,1.521
	C384.29,318.56,381.71,319.63,379.08,319.63z"/>
<path d="M344.441,319.632H132.923c-5.523,0-10-4.478-10-10s4.477-10,10-10h211.519c5.522,0,10,4.478,10,10
	S349.964,319.632,344.441,319.632z"/>
<path d="M132.92,368.49c-0.65,0-1.31-0.07-1.95-0.2s-1.27-0.32-1.87-0.57c-0.61-0.25-1.19-0.56-1.73-0.92
	c-0.55-0.36-1.06-0.78-1.52-1.24c-0.46-0.46-0.88-0.97-1.24-1.52s-0.67-1.13-0.92-1.73s-0.44-1.229-0.57-1.87
	c-0.13-0.64-0.2-1.3-0.2-1.949c0-0.66,0.07-1.311,0.2-1.96c0.13-0.641,0.32-1.271,0.57-1.87c0.25-0.601,0.56-1.181,0.92-1.721
	c0.36-0.55,0.78-1.06,1.24-1.529c0.46-0.46,0.97-0.88,1.52-1.24c0.54-0.36,1.12-0.67,1.73-0.92c0.6-0.25,1.23-0.44,1.87-0.57
	c1.29-0.26,2.62-0.26,3.91,0c0.64,0.13,1.26,0.32,1.87,0.57c0.6,0.25,1.18,0.56,1.72,0.92c0.55,0.36,1.06,0.78,1.52,1.24
	c0.46,0.47,0.88,0.979,1.25,1.529c0.36,0.54,0.67,1.12,0.92,1.721c0.25,0.6,0.44,1.229,0.57,1.87c0.13,0.649,0.19,1.3,0.19,1.96
	c0,0.649-0.06,1.31-0.19,1.949c-0.13,0.641-0.32,1.271-0.57,1.87c-0.25,0.601-0.56,1.181-0.92,1.73c-0.37,0.55-0.79,1.06-1.25,1.52
	C138.13,367.42,135.56,368.49,132.92,368.49z"/>
<path d="M379.077,368.486H167.559c-5.523,0-10-4.478-10-10s4.477-10,10-10h211.519c5.522,0,10,4.478,10,10
	S384.6,368.486,379.077,368.486z"/>
<rect x="132.92" y="119.94" style="fill:#00CDB3;" width="246.16" height="48.29"/>
<rect x="132.92" y="209.18" style="fill:#FF3C63;" width="246.16" height="48.742"/>
<path d="M379.077,267.923H132.923c-5.523,0-10-4.478-10-10v-48.742c0-5.522,4.477-10,10-10h246.154c5.522,0,10,4.478,10,10v48.742
	C389.077,263.445,384.6,267.923,379.077,267.923z M142.923,247.923h226.154v-28.742H142.923V247.923z"/>
<path d="M450.393,53.805c0-5.522-4.478-10-10-10H310.701C305.101,18.645,282.588,0,256.044,0c-26.69,0-49.064,18.773-54.649,43.805
	H71.607c-5.523,0-10,4.478-10,10V502c0,5.522,4.477,10,10,10H330c0.038,0,0.076-0.005,0.115-0.006
	c0.289-0.003,0.577-0.015,0.863-0.043c0.148-0.015,0.293-0.043,0.439-0.064c0.176-0.025,0.353-0.044,0.527-0.079
	c0.151-0.03,0.297-0.074,0.446-0.111c0.167-0.041,0.336-0.076,0.501-0.126c0.133-0.04,0.261-0.093,0.393-0.139
	c0.177-0.062,0.355-0.118,0.529-0.19c0.108-0.045,0.211-0.1,0.318-0.148c0.191-0.087,0.383-0.17,0.569-0.269
	c0.091-0.048,0.176-0.106,0.265-0.157c0.194-0.111,0.39-0.22,0.577-0.345c0.098-0.065,0.189-0.141,0.284-0.21
	c0.171-0.123,0.344-0.241,0.507-0.375c0.256-0.209,0.502-0.432,0.738-0.667l110.393-110.393c0.316-0.316,0.599-0.657,0.867-1.008
	c0.067-0.088,0.133-0.176,0.197-0.266c0.252-0.354,0.488-0.717,0.691-1.098c0.011-0.021,0.02-0.044,0.031-0.065
	c0.191-0.365,0.352-0.743,0.496-1.128c0.038-0.102,0.075-0.204,0.11-0.307c0.138-0.408,0.259-0.822,0.343-1.246
	c0.001-0.003,0.001-0.005,0.001-0.008c0.083-0.418,0.129-0.843,0.158-1.271c0.008-0.112,0.013-0.223,0.017-0.335
	c0.004-0.113,0.017-0.225,0.017-0.338V53.805H450.393z M256.044,20c15.498,0,28.859,9.881,33.879,23.805h-67.751
	C227.181,29.939,240.472,20,256.044,20z M281.63,129.944h87.447v28.287h-96.875c5.883-7.072,9.428-16.154,9.428-26.051V129.944z
	 M261.63,132.181c0,11.466-9.328,20.794-20.794,20.794s-20.794-9.328-20.794-20.794v-2.236h41.589L261.63,132.181L261.63,132.181z
	 M209.469,158.231h-66.547v-28.287h57.118v2.236C200.041,142.077,203.586,151.16,209.469,158.231z M229.673,63.805
	c-0.508,2.041-0.782,4.173-0.782,6.369v39.771h-8.85v-46.14C220.041,63.805,229.673,63.805,229.673,63.805z M248.891,109.944v-39.77
	c0-3.512,2.857-6.369,6.37-6.369c3.513,0,6.37,2.857,6.37,6.369v24.301v15.47h-12.74V109.944z M81.607,63.805h118.434v46.14h-67.118
	c-5.523,0-10,4.478-10,10v48.287c0,5.522,4.477,10,10,10h246.154c5.522,0,10-4.478,10-10v-48.287c0-5.522-4.478-10-10-10H281.63
	v-15.47V70.174v-0.372c0-0.127-0.014-0.25-0.019-0.375c-0.054-1.932-0.313-3.814-0.763-5.622h149.545v317.803H330
	c-5.522,0-10,4.478-10,10v5.732H132.923c-5.523,0-10,4.478-10,10s4.477,10,10,10H320V492H81.607V63.805z M340,477.857v-76.25h76.25
	L340,477.857z"/>
<g>
</g>
<g>
</g>
<g>
</g>
<g>
</g>
<g>
</g>
<g>
</g>
<g>
</g>
<g>
</g>
<g>
</g>
<g>
</g>
<g>
</g>
<g>
</g>
<g>
</g>
<g>
</g>
<g>
</g>
</svg>
